PathFileType	4	(X/Y/Z)	C:/Users/beibeiliu/ov580/test_trc/User2\sequence.15_training_dense_left.trc
DataRate	CameraRate	NumFrames	NumMarkers	Units	OrigDataRate	OrigDataStartFrame	OrigNumFrames
120	120	8	19	mm	120	171	273
Frame#	Time	ThumbCMC			ThumbMCP			ThumbIP			ThumbTip			IndexMCP			IndexPIP			IndexTip			MiddleMCP			MiddlePIP			MiddleTip			RingMCP			RingPIP			RingTip			PinkyMCP			PinkyPIP			PinkyTip			BackHand1			BackHand2			BackHand3	
		X0	Y0	Z0	X1	Y1	Z1	X2	Y2	Z2	X3	Y3	Z3	X4	Y4	Z4	X5	Y5	Z5	X6	Y6	Z6	X7	Y7	Z7	X8	Y8	Z8	X9	Y9	Z9	X10	Y10	Z10	X11	Y11	Z11	X12	Y12	Z12	X13	Y13	Z13	X14	Y14	Z14	X15	Y15	Z15	X16	Y16	Z16	X17	Y17	Z17	X18	Y18	Z18	
170	1.41667	-125.824	22.4841	28.2295	-123.577	9.03056	1.22595	-122.844	2.2968	-28.88	-120.966	-6.06825	-55.0052	-168.559	33.5919	-44.6514	-176.951	6.91556	-56.772	-166.906	-14.2254	-28.6542	-194.102	32.5578	-40.9492	-193.891	-3.82794	-49.163	-183.035	-14.175	-13.1334	-213.666	29.7609	-30.3815	-212.39	-1.03258	-38.5836	-195.935	-14.2718	-12.9648	-220.823	41.3909	1.64808	-229.617	45.2217	-22.7534	-240.346	49.7342	-49.9109	-192.584	50.7047	30.7169	-180.504	57.0885	60.2612	-152.374	55.79	31.7863	
171	1.425	-128.232	21.4367	30.4767	-132.288	8.22146	2.91761	-133.132	1.70511	-30.7067	-128.608	-7.39975	-49.9458	-173.486	30.5875	-43.5299	-184.188	4.55549	-52.2353	-171.953	-15.853	-23.6363	-198.48	31.2439	-37.8584	-202.448	-1.75973	-46.5835	-184.412	-15.6051	-10.0806	-214.908	30.602	-25.6675	-220.88	2.6601	-36.9881	-199.729	-15.5011	-7.8862	-224.263	39.7278	6.03286	-236.441	46.5673	-19.7774	-245.271	49.5555	-41.1833	-196.852	50.695	29.1801	-180.195	57.1889	63.3359	-151.82	52.9774	31.7349	
172	1.43333	-129.115	21.1442	33.721	-127.207	8.32273	4.7365	-130.566	4.07707	-28.7406	-123.653	-6.72652	-49.9065	-168.884	34.4688	-37.6237	-181.293	6.57888	-52.002	-168.786	-14.0513	-25.7844	-196.329	34.1738	-33.8333	-198.726	0.00264852	-45.926	-182.517	-11.9316	-8.02655	-213.321	32.7678	-28.1646	-216.728	2.93576	-36.7971	-201.873	-12.7242	-9.0391	-225.929	41.8318	6.41636	-236.153	48.9469	-21.2253	-246.567	55.0384	-45.3464	-192.015	51.6102	29.9328	-183.347	56.4705	62.9254	-156.475	54.0835	37.2489	
173	1.44167	-129.996	22.9712	37.4244	-128.484	12.3118	6.94834	-122.101	7.2493	-28.1333	-120.1	-0.3048	-47.5475	-163.813	38.6306	-35.0053	-171.438	7.87765	-50.7866	-165.525	-8.47864	-21.5527	-188.291	38.3648	-34.735	-190.716	3.03588	-46.3092	-175.154	-8.14266	-9.88683	-205.434	37.1197	-25.2491	-212.704	9.02593	-39.6921	-191.25	-9.07064	-13.1913	-218.52	45.6771	2.62714	-227.583	51.9068	-24.4966	-236.989	57.6429	-48.5997	-187.921	54.2001	33.6168	-181.724	54.4032	62.0376	-150.285	55.6295	36.4483	
174	1.45	-125.837	23.463	40.2502	-122.818	16.6162	10.3103	-112.134	13.0209	-24.249	-111.391	8.37802	-44.8941	-149.27	44.7467	-33.1423	-160.578	16.4077	-50.28	-152.201	-3.01385	-20.4105	-177.212	43.5392	-35.8981	-179.725	8.49934	-47.3741	-170.541	-4.79472	-13.7953	-199.341	41.5339	-28.9849	-194.993	13.927	-43.701	-183.663	-4.13962	-15.3456	-211.814	47.9755	-0.496322	-214.972	55.505	-26.6902	-221.542	60.5339	-52.7334	-188.274	55.7029	32.0746	-181.404	54.8253	64.6913	-147.47	55.9552	42.1693	
175	1.45833	-120.41	23.8639	46.2298	-111.114	18.9279	12.8409	-104.46	17.8877	-18.9238	-93.0846	12.5347	-40.609	-142.268	49.9901	-31.5771	-142.985	26.5788	-53.6856	-138.923	1.99815	-24.7303	-165.824	49.5382	-37.4504	-167.908	18.0916	-52.4539	-157.801	0.808728	-13.6369	-185.692	46.765	-31.0794	-181.098	20.0918	-47.1441	-172.139	0.959583	-21.276	-203.513	52.3069	-5.24308	-204.598	59.2827	-30.659	-205.343	66.8388	-56.7283	-179.95	54.4289	35.2835	-176.219	53.4849	63.7225	-143.112	56.4852	46.0109	
176	1.46667	-115.721	24.8727	43.6527	-105.009	19.6697	14.9584	-94.0973	19.6826	-15.2678	-83.6681	16.6608	-36.5478	-131.367	54.5392	-29.542	-135.459	29.1276	-50.7261	-131.847	6.84756	-26.3329	-154.118	53.6252	-37.5304	-152.885	23.6461	-53.6583	-146.924	3.33296	-15.4706	-175.775	50.905	-32.5946	-174.21	25.4013	-50.5083	-162.054	4.91996	-19.2169	-190.314	54.8531	-8.56462	-196.09	64.5825	-37.3237	-194.56	71.114	-60.6401	-176.297	56.7145	32.6838	-174.8	53.7542	62.8614	-137.616	58.3534	44.6491	
177	1.475	-108.359	25.3593	46.1097	-98.9945	21.0222	15.711	-87.7942	22.0946	-12.2097	-77.3235	21.8542	-37.1458	-120.922	57.8969	-32.5386	-126.027	33.7581	-52.4953	-122.722	8.85078	-24.3631	-145.685	56.7393	-35.0113	-145.882	23.2005	-53.4342	-143.569	6.22989	-19.0026	-164.396	53.9652	-35.3041	-165.42	28.7195	-52.0624	-155.881	6.81479	-20.1971	-188.566	54.6653	-8.74271	-189.096	65.5317	-37.1111	-187.043	73.6172	-64.3881	-171.347	59.7884	27.8405	-173.64	52.7304	63.862	-135.855	59.0602	47.5939	
